<svg xmlns="http://www.w3.org/2000/svg" viewBox="0 0 420 620">
  <defs><linearGradient id="bg" x2="0" y2="1"><stop stop-color="#586b49"/><stop offset=".48" stop-color="#283c31"/><stop offset="1" stop-color="#111b18"/></linearGradient><radialGradient id="glow"><stop stop-color="#c0d77b" stop-opacity=".62"/><stop offset="1" stop-color="#91ac5e" stop-opacity="0"/></radialGradient></defs>
  <rect width="420" height="620" fill="url(#bg)"/><circle cx="218" cy="278" r="177" fill="url(#glow)"/><path d="M-20 540 118 347l50 53 39-151 83 146 31-65 119 210v80H-20Z" fill="#17221d"/><path d="m124 397 27-103 34 70 37-134 46 141 32-50 45 100-92 50H166Z" fill="#394636" stroke="#a9bd75" stroke-opacity=".6" stroke-width="3"/><path d="m190 406 11-101 23-72 27 75 11 105-34 37Z" fill="#c0b893"/><path d="m195 305 29-36 29 39-12 33h-35Z" fill="#283229"/><path d="m202 319 10-8 10 8-10 6Zm24 0 10-8 10 8-10 6Z" fill="#e2edaa"/><path d="m178 434 43-18 40 20-4 118h-83Z" fill="#4c6948" stroke="#b7ca78" stroke-width="3"/><path d="m177 449-47 105m131-106 52 94" stroke="#a9bd75" stroke-width="14"/><path d="M0 581h420" stroke="#d1de9b" stroke-opacity=".4"/>
</svg>